<svg width="27" height="32" viewBox="0 0 27 32" fill="none" xmlns="http://www.w3.org/2000/svg">
<path d="M13.0909 8.72727C13.8624 8.72727 14.6024 8.42078 15.1479 7.87522C15.6935 7.32966 16 6.58972 16 5.81818C16 5.26545 15.8545 4.75636 15.5782 4.32L13.0909 0L10.6036 4.32C10.3273 4.75636 10.1818 5.26545 10.1818 5.81818C10.1818 7.41818 11.4909 8.72727 13.0909 8.72727ZM19.7818 23.2582L18.2255 21.7018L16.6545 23.2582C14.7636 25.1491 11.4473 25.1636 9.54182 23.2582L7.98545 21.7018L6.4 23.2582C5.45455 24.2036 4.18909 24.7273 2.85091 24.7273C1.78909 24.7273 0.814545 24.3927 0 23.84V30.5455C0 31.3455 0.654545 32 1.45455 32H24.7273C25.5273 32 26.1818 31.3455 26.1818 30.5455V23.84C25.3673 24.3927 24.3927 24.7273 23.3309 24.7273C21.9927 24.7273 20.7273 24.2036 19.7818 23.2582ZM21.8182 13.0909H14.5455V10.1818H11.6364V13.0909H4.36364C1.94909 13.0909 0 15.04 0 17.4545V19.6945C0 21.2655 1.28 22.5455 2.85091 22.5455C3.60727 22.5455 4.33455 22.2545 4.85818 21.7164L7.97091 18.6182L11.0691 21.7164C12.1455 22.7927 14.0218 22.7927 15.0982 21.7164L18.2109 18.6182L21.3091 21.7164C21.8473 22.2545 22.56 22.5455 23.3164 22.5455C24.8873 22.5455 26.1673 21.2655 26.1673 19.6945V17.4545C26.1818 15.04 24.2327 13.0909 21.8182 13.0909Z" fill="white"/>
</svg>
