<svg width="27" height="30" viewBox="0 0 27 30" fill="none" xmlns="http://www.w3.org/2000/svg">
<path d="M3 30C2.175 30 1.4685 29.7065 0.8805 29.1195C0.2935 28.5315 0 27.825 0 27V6C0 5.175 0.2935 4.469 0.8805 3.882C1.4685 3.294 2.175 3 3 3H4.5V0H7.5V3H19.5V0H22.5V3H24C24.825 3 25.5315 3.294 26.1195 3.882C26.7065 4.469 27 5.175 27 6V27C27 27.825 26.7065 28.5315 26.1195 29.1195C25.5315 29.7065 24.825 30 24 30H3ZM3 27H24V12H3V27ZM3 9H24V6H3V9ZM13.5 18C13.075 18 12.719 17.856 12.432 17.568C12.144 17.281 12 16.925 12 16.5C12 16.075 12.144 15.7185 12.432 15.4305C12.719 15.1435 13.075 15 13.5 15C13.925 15 14.2815 15.1435 14.5695 15.4305C14.8565 15.7185 15 16.075 15 16.5C15 16.925 14.8565 17.281 14.5695 17.568C14.2815 17.856 13.925 18 13.5 18ZM7.5 18C7.075 18 6.7185 17.856 6.4305 17.568C6.1435 17.281 6 16.925 6 16.5C6 16.075 6.1435 15.7185 6.4305 15.4305C6.7185 15.1435 7.075 15 7.5 15C7.925 15 8.2815 15.1435 8.5695 15.4305C8.8565 15.7185 9 16.075 9 16.5C9 16.925 8.8565 17.281 8.5695 17.568C8.2815 17.856 7.925 18 7.5 18ZM19.5 18C19.075 18 18.719 17.856 18.432 17.568C18.144 17.281 18 16.925 18 16.5C18 16.075 18.144 15.7185 18.432 15.4305C18.719 15.1435 19.075 15 19.5 15C19.925 15 20.281 15.1435 20.568 15.4305C20.856 15.7185 21 16.075 21 16.5C21 16.925 20.856 17.281 20.568 17.568C20.281 17.856 19.925 18 19.5 18ZM13.5 24C13.075 24 12.719 23.856 12.432 23.568C12.144 23.281 12 22.925 12 22.5C12 22.075 12.144 21.719 12.432 21.432C12.719 21.144 13.075 21 13.5 21C13.925 21 14.2815 21.144 14.5695 21.432C14.8565 21.719 15 22.075 15 22.5C15 22.925 14.8565 23.281 14.5695 23.568C14.2815 23.856 13.925 24 13.5 24ZM7.5 24C7.075 24 6.7185 23.856 6.4305 23.568C6.1435 23.281 6 22.925 6 22.5C6 22.075 6.1435 21.719 6.4305 21.432C6.7185 21.144 7.075 21 7.5 21C7.925 21 8.2815 21.144 8.5695 21.432C8.8565 21.719 9 22.075 9 22.5C9 22.925 8.8565 23.281 8.5695 23.568C8.2815 23.856 7.925 24 7.5 24ZM19.5 24C19.075 24 18.719 23.856 18.432 23.568C18.144 23.281 18 22.925 18 22.5C18 22.075 18.144 21.719 18.432 21.432C18.719 21.144 19.075 21 19.5 21C19.925 21 20.281 21.144 20.568 21.432C20.856 21.719 21 22.075 21 22.5C21 22.925 20.856 23.281 20.568 23.568C20.281 23.856 19.925 24 19.5 24Z" fill="white"/>
</svg>
