<svg width="28" height="28" viewBox="0 0 28 28" fill="none" xmlns="http://www.w3.org/2000/svg">
<path d="M22.5143 10.9914L23.0781 11.0693C26.3055 11.5169 28.4793 10.4659 27.909 8.73414C27.3383 7.00328 27.3383 4.16921 27.909 2.43835C28.4797 0.706549 26.3055 -0.344384 23.0781 0.103149L20.4941 0.462016C18.6676 0.714949 17.0343 1.56475 15.9567 2.68288C15.6814 1.92642 15.1041 2.44115 14.0005 2.44115C12.8968 2.44115 12.3191 1.92595 12.0437 2.68288C10.9667 1.56475 9.33287 0.714949 7.5068 0.462016L4.92287 0.103149C1.69493 -0.344384 -0.479267 0.706549 0.091 2.43835C0.662667 4.16921 0.662667 7.00328 0.091 8.73414C-0.479733 10.4659 1.69493 11.5169 4.92287 11.0693L5.48613 10.9914C4.71567 14.0238 3.15747 17.6829 0 20.5333H6.06667V28C6.06667 28 11.2677 20.6108 12.2323 8.88861C12.5543 9.16675 13.1035 8.82701 14.0005 8.82701C14.8969 8.82701 15.4462 9.16628 15.7682 8.88861C16.7328 20.6108 21.9333 28 21.9333 28V20.5333H28C24.8425 17.6829 23.2843 14.0238 22.5143 10.9914ZM7.3794 9.86861L4.79547 10.2275C4.34373 10.29 3.90693 10.3217 3.4958 10.3217C2.06593 10.3217 1.2726 9.95121 1.00753 9.60494C0.919333 9.49061 0.627667 9.23301 0.881067 8.99081C3.88173 6.12128 11.7222 7.54368 11.7222 7.54368C10.8127 8.69448 9.18773 9.61801 7.3794 9.86861ZM20.6215 9.86861C18.8132 9.61801 17.1883 8.69401 16.2783 7.54368C16.2783 7.54368 24.1197 6.12081 27.1189 8.99081C27.3733 9.23348 27.0807 9.49061 26.9929 9.60494C26.7279 9.95121 25.9345 10.3217 24.5047 10.3217C24.0935 10.3217 23.6563 10.29 23.205 10.2275L20.6215 9.86861Z" fill="white"/>
</svg>
