<svg width="28" height="30" viewBox="0 0 28 30" fill="none" xmlns="http://www.w3.org/2000/svg">
<path d="M25.5357 0C26.0168 5.38542e-05 26.4812 0.149936 26.8407 0.421218C27.2003 0.6925 27.43 1.06631 27.4862 1.47176L27.5 1.66677V28.3351C27.4994 28.7599 27.3077 29.1685 26.9641 29.4774C26.6204 29.7863 26.1506 29.9722 25.6508 29.9971C25.151 30.022 24.6589 29.8841 24.275 29.6114C23.891 29.3387 23.6443 28.9519 23.5852 28.5301L23.5714 28.3351V20.0012H21.6071C21.126 20.0012 20.6617 19.8513 20.3021 19.58C19.9426 19.3087 19.7129 18.9349 19.6566 18.5295L19.6429 18.3345V8.33385C19.6429 4.65029 22.5893 0 25.5357 0ZM13.75 0C14.2311 5.38542e-05 14.6955 0.149936 15.055 0.421218C15.4146 0.6925 15.6442 1.06631 15.7005 1.47176L15.7143 1.66677V10.0006C15.7141 11.4788 15.1352 12.9151 14.0685 14.0838C13.0019 15.2526 11.508 16.0876 9.82143 16.4577V28.3351C9.82087 28.7599 9.62917 29.1685 9.28548 29.4774C8.94179 29.7863 8.47206 29.9722 7.97226 29.9971C7.47246 30.022 6.98033 29.8841 6.5964 29.6114C6.21247 29.3387 5.96574 28.9519 5.90661 28.5301L5.89286 28.3351V16.4577C4.27321 16.1024 2.82937 15.3179 1.77132 14.2184C0.713273 13.1189 0.0961915 11.7616 0.00982165 10.344L0 10.0006V1.66677C0.000555318 1.24194 0.192262 0.833331 0.535952 0.524418C0.879641 0.215506 1.34937 0.0296102 1.84917 0.00471343C2.34896 -0.0201833 2.8411 0.117798 3.22503 0.390465C3.60895 0.663133 3.85569 1.0499 3.91482 1.47176L3.92857 1.66677V10.0006C3.92859 10.5858 4.11012 11.1606 4.45493 11.6673C4.79973 12.1741 5.29565 12.5949 5.89286 12.8875V1.66677C5.89341 1.24194 6.08512 0.833331 6.42881 0.524418C6.7725 0.215506 7.24223 0.0296102 7.74203 0.00471343C8.24182 -0.0201833 8.73396 0.117798 9.11789 0.390465C9.50181 0.663133 9.74855 1.0499 9.80768 1.47176L9.82143 1.66677L9.82339 12.8875C10.3716 12.6186 10.835 12.2413 11.1743 11.7877C11.5136 11.3341 11.7186 10.8176 11.772 10.2823L11.7857 10.0006V1.66677C11.7857 1.22471 11.9927 0.800765 12.361 0.488185C12.7294 0.175605 13.229 0 13.75 0Z" fill="white"/>
</svg>
