<svg width="30" height="27" viewBox="0 0 30 27" fill="none" xmlns="http://www.w3.org/2000/svg">
<path d="M19.1203 17.9956C20.569 17.9956 21.7447 19.1713 21.7447 20.6199L21.7432 22.0626C21.9186 25.3468 19.4772 27.0069 15.0968 27.0069C10.7329 27.0069 8.24798 25.3723 8.24798 22.1196V20.6199C8.24798 19.1713 9.42369 17.9956 10.8723 17.9956H19.1203ZM19.1203 20.245H10.8723C10.7729 20.245 10.6775 20.2845 10.6072 20.3548C10.5369 20.4252 10.4974 20.5205 10.4974 20.6199V22.1196C10.4974 23.8831 11.8276 24.7574 15.0968 24.7574C18.348 24.7574 19.5882 23.9116 19.4952 22.1226V20.6199C19.4952 20.5205 19.4557 20.4252 19.3854 20.3548C19.3151 20.2845 19.2197 20.245 19.1203 20.245ZM2.62436 10.4974H9.18675C8.9978 11.2315 8.94946 11.9948 9.04428 12.7469H2.62436C2.52492 12.7469 2.42957 12.7864 2.35926 12.8567C2.28895 12.927 2.24945 13.0224 2.24945 13.1218V14.6214C2.24945 16.385 3.57962 17.2593 6.84882 17.2593C7.54165 17.2593 8.143 17.2203 8.65888 17.1438C7.80083 17.6874 7.17425 18.5292 6.89981 19.5072L6.84882 19.5087C2.48489 19.5087 0 17.8741 0 14.6214V13.1218C0 11.6731 1.17571 10.4974 2.62436 10.4974ZM27.3683 10.4974C28.8169 10.4974 29.9926 11.6731 29.9926 13.1218L29.9911 14.5644C30.1666 17.8486 27.7252 19.5087 23.3448 19.5087L23.0913 19.5057C22.8086 18.501 22.156 17.6406 21.2648 17.0973C21.8451 17.2053 22.535 17.2593 23.3448 17.2593C26.596 17.2593 27.8362 16.4135 27.7432 14.6244V13.1218C27.7432 13.0224 27.7037 12.927 27.6334 12.8567C27.5631 12.7864 27.4677 12.7469 27.3683 12.7469H20.9499C21.0427 11.9946 20.9938 11.2317 20.8059 10.4974H27.3683ZM14.9963 7.49816C15.5871 7.49816 16.1721 7.61453 16.718 7.84062C17.2638 8.06671 17.7598 8.3981 18.1775 8.81586C18.5953 9.23362 18.9267 9.72957 19.1528 10.2754C19.3789 10.8212 19.4952 11.4063 19.4952 11.9971C19.4952 12.5879 19.3789 13.1729 19.1528 13.7187C18.9267 14.2645 18.5953 14.7605 18.1775 15.1783C17.7598 15.596 17.2638 15.9274 16.718 16.1535C16.1721 16.3796 15.5871 16.496 14.9963 16.496C13.8031 16.496 12.6588 16.022 11.8151 15.1783C10.9714 14.3346 10.4974 13.1902 10.4974 11.9971C10.4974 10.8039 10.9714 9.65956 11.8151 8.81586C12.6588 7.97215 13.8031 7.49816 14.9963 7.49816ZM14.9963 9.74761C14.7009 9.74761 14.4084 9.80579 14.1355 9.91884C13.8626 10.0319 13.6146 10.1976 13.4057 10.4065C13.1968 10.6153 13.0311 10.8633 12.9181 11.1362C12.8051 11.4091 12.7469 11.7017 12.7469 11.9971C12.7469 12.2925 12.8051 12.585 12.9181 12.8579C13.0311 13.1308 13.1968 13.3788 13.4057 13.5877C13.6146 13.7965 13.8626 13.9622 14.1355 14.0753C14.4084 14.1883 14.7009 14.2465 14.9963 14.2465C15.5929 14.2465 16.1651 14.0095 16.5869 13.5877C17.0088 13.1658 17.2458 12.5936 17.2458 11.9971C17.2458 11.4005 17.0088 10.8283 16.5869 10.4065C16.1651 9.9846 15.5929 9.74761 14.9963 9.74761ZM6.74835 0C7.94153 0 9.08584 0.47399 9.92955 1.3177C10.7733 2.1614 11.2472 3.30572 11.2472 4.4989C11.2472 5.69208 10.7733 6.83639 9.92955 7.6801C9.08584 8.52381 7.94153 8.99779 6.74835 8.99779C5.55516 8.99779 4.41085 8.52381 3.56715 7.6801C2.72344 6.83639 2.24945 5.69208 2.24945 4.4989C2.24945 3.30572 2.72344 2.1614 3.56715 1.3177C4.41085 0.47399 5.55516 0 6.74835 0ZM23.2443 0C24.4375 0 25.5818 0.47399 26.4255 1.3177C27.2692 2.1614 27.7432 3.30572 27.7432 4.4989C27.7432 5.69208 27.2692 6.83639 26.4255 7.6801C25.5818 8.52381 24.4375 8.99779 23.2443 8.99779C22.0511 8.99779 20.9068 8.52381 20.0631 7.6801C19.2194 6.83639 18.7454 5.69208 18.7454 4.4989C18.7454 3.30572 19.2194 2.1614 20.0631 1.3177C20.9068 0.47399 22.0511 0 23.2443 0ZM6.74835 2.24945C6.15176 2.24945 5.5796 2.48644 5.15775 2.9083C4.73589 3.33015 4.4989 3.90231 4.4989 4.4989C4.4989 5.09549 4.73589 5.66764 5.15775 6.0895C5.5796 6.51135 6.15176 6.74835 6.74835 6.74835C7.34494 6.74835 7.91709 6.51135 8.33895 6.0895C8.7608 5.66764 8.9978 5.09549 8.9978 4.4989C8.9978 3.90231 8.7608 3.33015 8.33895 2.9083C7.91709 2.48644 7.34494 2.24945 6.74835 2.24945ZM23.2443 2.24945C22.6477 2.24945 22.0756 2.48644 21.6537 2.9083C21.2319 3.33015 20.9949 3.90231 20.9949 4.4989C20.9949 5.09549 21.2319 5.66764 21.6537 6.0895C22.0756 6.51135 22.6477 6.74835 23.2443 6.74835C23.8409 6.74835 24.413 6.51135 24.8349 6.0895C25.2568 5.66764 25.4938 5.09549 25.4938 4.4989C25.4938 3.90231 25.2568 3.33015 24.8349 2.9083C24.413 2.48644 23.8409 2.24945 23.2443 2.24945Z" fill="white"/>
</svg>
