<svg width="28" height="28" viewBox="0 0 28 28" fill="none" xmlns="http://www.w3.org/2000/svg">
<path d="M20.4615 0.00350335C18.9942 -0.0467924 17.5547 0.445721 16.3803 1.39994C15.2058 2.35417 14.3663 3.71321 14 5.25328C13.6337 3.71321 12.7942 2.35417 11.6197 1.39994C10.4453 0.445721 9.00583 -0.0467924 7.53846 0.00350335C3.808 -0.124825 2.66 4.19166 3.91569 6.99854H1.07692C0.791305 6.99854 0.517386 7.12146 0.315423 7.34024C0.113461 7.55902 0 7.85576 0 8.16516V10.4984C0 10.8078 0.113461 11.1045 0.315423 11.3233C0.517386 11.5421 0.791305 11.665 1.07692 11.665H26.9231C27.2087 11.665 27.4826 11.5421 27.6846 11.3233C27.8865 11.1045 28 10.8078 28 10.4984V8.16516C28 7.85576 27.8865 7.55902 27.6846 7.34024C27.4826 7.12146 27.2087 6.99854 26.9231 6.99854H24.1102C25.4154 4.23366 24.3212 0.00117028 20.5477 0.00117028H20.4615V0.00350335ZM20.8557 6.99854H16.1538C16.155 5.76173 16.6093 4.57599 17.4171 3.70187C18.2248 2.82774 19.3198 2.33674 20.4615 2.33674C22.9923 2.33674 23.4403 6.70456 20.8557 6.99854ZM11.8462 6.99854H7.09046C4.86123 6.72556 4.72985 2.5794 7.17662 2.33674C7.29698 2.3248 7.4181 2.3248 7.53846 2.33674C8.68019 2.33674 9.77521 2.82774 10.5829 3.70187C11.3907 4.57599 11.845 5.76173 11.8462 6.99854ZM2.15385 14.0006V24.5001C2.15385 25.4284 2.49423 26.3186 3.10012 26.9749C3.706 27.6313 4.52776 28 5.38462 28H11.8462V14.0006H2.15385ZM16.1538 14.0006V28H22.6154C23.4722 28 24.294 27.6313 24.8999 26.9749C25.5058 26.3186 25.8462 25.4284 25.8462 24.5001V14.0006H16.1538Z" fill="white"/>
</svg>
