<svg width="33" height="35" viewBox="0 0 33 35" fill="none" xmlns="http://www.w3.org/2000/svg">
<path d="M13.3125 26.2676V15.9966L2.375 10.5278V25.5669L11.6719 30.2324L11.1421 32.4028L0.1875 26.9341V8.06689L14.4062 0.974609L28.625 8.06689V12.6812C27.8275 12.8065 27.0983 13.0628 26.4375 13.4502V10.5278L15.5 15.9966V24.0801L13.3125 26.2676ZM10.8857 5.16162L20.8662 10.8696L25.0874 8.75049L14.4062 3.40137L10.8857 5.16162ZM14.4062 14.0996L18.5078 12.0488L8.52734 6.34082L3.7251 8.75049L14.4062 14.0996ZM29.582 15.313C30.0605 15.313 30.5049 15.3984 30.915 15.5693C31.3252 15.7402 31.6898 15.9738 32.0088 16.27C32.3278 16.5662 32.5671 16.9251 32.7266 17.3467C32.8861 17.7682 32.9772 18.2183 33 18.6968C33 19.1411 32.9146 19.5741 32.7437 19.9956C32.5728 20.4172 32.3278 20.7874 32.0088 21.1064L19.7554 33.3599L13.3125 34.9663L14.9189 28.5234L27.1724 16.2871C27.5028 15.9567 27.873 15.7118 28.2832 15.5522C28.6934 15.3927 29.1263 15.313 29.582 15.313ZM30.4536 19.5684C30.6929 19.3291 30.8125 19.0386 30.8125 18.6968C30.8125 18.3436 30.6986 18.0588 30.4707 17.8423C30.2428 17.6258 29.9466 17.5119 29.582 17.5005C29.4225 17.5005 29.2687 17.5233 29.1206 17.5688C28.9725 17.6144 28.8415 17.6999 28.7275 17.8252L16.9014 29.6514L16.3203 31.9585L18.6274 31.3774L30.4536 19.5684Z" fill="white"/>
</svg>
