<svg width="32" height="31" viewBox="0 0 32 31" fill="none" xmlns="http://www.w3.org/2000/svg">
<path d="M25.7082 9.66699V6.75033H22.7915V3.83366H25.7082V0.916992H28.6248V3.83366H31.5415V6.75033H28.6248V9.66699H25.7082ZM2.37484 30.0837C1.96165 30.0837 1.61505 29.9437 1.33505 29.6637C1.05505 29.3837 0.915537 29.0375 0.916509 28.6253V21.3337C0.916509 20.5316 1.20234 19.8447 1.77401 19.273C2.34568 18.7014 3.03206 18.416 3.83318 18.417V12.5837C3.83318 11.7816 4.11901 11.0947 4.69068 10.523C5.26234 9.95137 5.94873 9.66602 6.74984 9.66699H12.5832V7.55241C12.1457 7.26074 11.7932 6.90831 11.5259 6.49512C11.2585 6.08192 11.1248 5.58366 11.1248 5.00033C11.1248 4.63574 11.1978 4.27699 11.3436 3.92408C11.4894 3.57116 11.7082 3.24935 11.9998 2.95866L14.0415 0.916992L16.0832 2.95866C16.3748 3.25033 16.5936 3.57213 16.7394 3.92408C16.8853 4.27602 16.9582 4.63477 16.9582 5.00033C16.9582 5.58366 16.8245 6.08192 16.5571 6.49512C16.2898 6.90831 15.9373 7.26074 15.4998 7.55241V9.66699H21.3332C22.1353 9.66699 22.8221 9.95234 23.3938 10.523C23.9655 11.0937 24.2508 11.7806 24.2498 12.5837V18.417C25.0519 18.417 25.7388 18.7028 26.3105 19.2745C26.8821 19.8462 27.1675 20.5325 27.1665 21.3337V28.6253C27.1665 29.0385 27.0265 29.3851 26.7465 29.6651C26.4665 29.9451 26.1204 30.0846 25.7082 30.0837H2.37484ZM6.74984 18.417H21.3332V12.5837H6.74984V18.417ZM3.83318 27.167H24.2498V21.3337H3.83318V27.167Z" fill="white"/>
</svg>
