<svg width="29" height="27" viewBox="0 0 29 27" fill="none" xmlns="http://www.w3.org/2000/svg">
<path d="M29 13.5825C29 6.08114 22.5081 0 14.5 0C6.49192 0 0 6.08103 0 13.5825C0 20.3619 5.30247 25.9811 12.2344 27V17.5087H8.55273V13.5825H12.2344V10.5901C12.2344 7.18599 14.3992 5.30567 17.7112 5.30567C19.2977 5.30567 20.957 5.57095 20.957 5.57095V8.91352H19.1287C17.3273 8.91352 16.7656 9.96054 16.7656 11.0347V13.5825H20.7871L20.1442 17.5087H16.7656V27C23.6975 25.9811 29 20.362 29 13.5825Z" fill="#1877F2"/>
<path d="M20.2137 17.2816L20.8356 13.3301H16.9452V10.7659C16.9452 9.68472 17.4887 8.63107 19.2312 8.63107H21V5.26699C21 5.26699 19.3947 5 17.8599 5C14.6559 5 12.5616 6.89243 12.5616 10.3184V13.3301H9V17.2816H12.5616V26.8339C13.2867 26.9447 14.0195 27.0002 14.7534 27C15.4873 27.0002 16.2201 26.9447 16.9452 26.8339V17.2816H20.2137Z" fill="white"/>
</svg>
