<svg width="33" height="33" viewBox="0 0 33 33" fill="none" xmlns="http://www.w3.org/2000/svg">
<path fill-rule="evenodd" clip-rule="evenodd" d="M22.3337 12.1243C22.3337 13.6714 21.7191 15.1552 20.6251 16.2491C19.5312 17.3431 18.0474 17.9577 16.5003 17.9577C14.9532 17.9577 13.4695 17.3431 12.3755 16.2491C11.2816 15.1552 10.667 13.6714 10.667 12.1243C10.667 10.5773 11.2816 9.09352 12.3755 7.99956C13.4695 6.9056 14.9532 6.29102 16.5003 6.29102C18.0474 6.29102 19.5312 6.9056 20.6251 7.99956C21.7191 9.09352 22.3337 10.5773 22.3337 12.1243ZM19.417 12.1243C19.417 12.8979 19.1097 13.6398 18.5627 14.1867C18.0157 14.7337 17.2739 15.041 16.5003 15.041C15.7268 15.041 14.9849 14.7337 14.4379 14.1867C13.891 13.6398 13.5837 12.8979 13.5837 12.1243C13.5837 11.3508 13.891 10.6089 14.4379 10.062C14.9849 9.51497 15.7268 9.20768 16.5003 9.20768C17.2739 9.20768 18.0157 9.51497 18.5627 10.062C19.1097 10.6089 19.417 11.3508 19.417 12.1243Z" fill="white"/>
<path fill-rule="evenodd" clip-rule="evenodd" d="M16.5002 0.458008C7.64079 0.458008 0.458496 7.6403 0.458496 16.4997C0.458496 25.3591 7.64079 32.5413 16.5002 32.5413C25.3595 32.5413 32.5418 25.3591 32.5418 16.4997C32.5418 7.6403 25.3595 0.458008 16.5002 0.458008ZM3.37516 16.4997C3.37516 19.5476 4.41495 22.3534 6.15766 24.5818C7.38154 22.9745 8.96043 21.672 10.771 20.776C12.5816 19.8799 14.5748 19.4146 16.595 19.4163C18.589 19.4145 20.5571 19.8677 22.3494 20.7416C24.1418 21.6156 25.7109 22.8871 26.9375 24.4593C28.201 22.802 29.0518 20.8677 29.4194 18.8164C29.787 16.765 29.6608 14.6557 29.0513 12.6628C28.4418 10.6699 27.3665 8.85079 25.9144 7.35598C24.4623 5.86117 22.6751 4.73364 20.7007 4.06667C18.7263 3.3997 16.6215 3.21247 14.5604 3.52047C12.4993 3.82847 10.5411 4.62285 8.84795 5.83788C7.15479 7.05291 5.7753 8.65365 4.82362 10.5077C3.87194 12.3617 3.37543 14.4157 3.37516 16.4997ZM16.5002 29.6247C13.4872 29.6292 10.5651 28.5927 8.2285 26.6905C9.16902 25.3441 10.4209 24.2448 11.8775 23.4861C13.3342 22.7274 14.9526 22.3318 16.595 22.333C18.2169 22.3317 19.8157 22.7174 21.2586 23.458C22.7015 24.1986 23.9469 25.2728 24.8914 26.5913C22.5366 28.5553 19.5664 29.629 16.5002 29.6247Z" fill="white"/>
</svg>
