<svg width="29" height="27" viewBox="0 0 29 27" fill="none" xmlns="http://www.w3.org/2000/svg">
<g clip-path="url(#clip0_162_7732)">
<path d="M22.2031 0H6.79688C3.04306 0 0 2.8332 0 6.32812V20.6719C0 24.1668 3.04306 27 6.79688 27H22.2031C25.9569 27 29 24.1668 29 20.6719V6.32812C29 2.8332 25.9569 0 22.2031 0Z" fill="url(#paint0_radial_162_7732)"/>
<path d="M22.2031 0H6.79688C3.04306 0 0 2.8332 0 6.32812V20.6719C0 24.1668 3.04306 27 6.79688 27H22.2031C25.9569 27 29 24.1668 29 20.6719V6.32812C29 2.8332 25.9569 0 22.2031 0Z" fill="url(#paint1_radial_162_7732)"/>
<path d="M14.501 2.95312C11.4245 2.95312 11.0384 2.96568 9.83009 3.01683C8.6241 3.0683 7.80089 3.24601 7.08064 3.50684C6.33548 3.7762 5.70348 4.13659 5.07387 4.723C4.44368 5.3093 4.0566 5.89771 3.76638 6.59116C3.48544 7.26194 3.29433 8.0287 3.24007 9.151C3.18604 10.276 3.17188 10.6357 3.17188 13.5001C3.17188 16.3645 3.18547 16.7229 3.2403 17.8478C3.2958 18.9707 3.48668 19.7371 3.7666 20.4077C4.05615 21.1014 4.44323 21.6899 5.07307 22.2761C5.70258 22.8628 6.33457 23.224 7.07917 23.4934C7.79998 23.7542 8.62331 23.9319 9.82907 23.9834C11.0374 24.0345 11.4233 24.0471 14.4997 24.0471C17.5765 24.0471 17.9614 24.0345 19.1697 23.9834C20.3757 23.9319 21.1998 23.7542 21.9206 23.4934C22.6654 23.224 23.2965 22.8628 23.9259 22.2761C24.5561 21.6899 24.9431 21.1014 25.2334 20.408C25.5118 19.7371 25.7031 18.9705 25.7597 17.8481C25.814 16.7231 25.8281 16.3645 25.8281 13.5001C25.8281 10.6357 25.814 10.2762 25.7597 9.15121C25.7031 8.02839 25.5118 7.26205 25.2334 6.59148C24.9431 5.89771 24.5561 5.3093 23.9259 4.723C23.2958 4.13638 22.6657 3.77599 21.9199 3.50694C21.1978 3.24601 20.3741 3.06819 19.1681 3.01683C17.9597 2.96568 17.575 2.95312 14.4975 2.95312H14.501ZM13.4848 4.85378C13.7864 4.85336 14.123 4.85378 14.501 4.85378C17.5257 4.85378 17.8842 4.8639 19.0786 4.91442C20.1831 4.96146 20.7826 5.13327 21.1819 5.27766C21.7106 5.46877 22.0875 5.69732 22.4837 6.06656C22.8802 6.4357 23.1256 6.78723 23.3314 7.27945C23.4865 7.6507 23.6713 8.20884 23.7215 9.23716C23.7758 10.349 23.7876 10.6829 23.7876 13.4977C23.7876 16.3124 23.7758 16.6464 23.7215 17.7582C23.671 18.7865 23.4865 19.3447 23.3314 19.716C23.1261 20.2082 22.8802 20.5587 22.4837 20.9276C22.0872 21.2968 21.7108 21.5252 21.1819 21.7164C20.783 21.8615 20.1831 22.0328 19.0786 22.0799C17.8844 22.1304 17.5257 22.1414 14.501 22.1414C11.4762 22.1414 11.1176 22.1304 9.92355 22.0799C8.81906 22.0324 8.21957 21.8606 7.81992 21.7162C7.29135 21.525 6.91367 21.2966 6.51718 20.9274C6.1207 20.5583 5.87533 20.2076 5.6695 19.7152C5.51442 19.3438 5.32966 18.7857 5.27936 17.7573C5.2251 16.6455 5.21422 16.3116 5.21422 13.495C5.21422 10.6786 5.2251 10.3464 5.27936 9.23453C5.32988 8.20621 5.51442 7.64807 5.6695 7.27629C5.87488 6.78407 6.1207 6.43254 6.5173 6.0634C6.91378 5.69426 7.29135 5.46571 7.82003 5.27418C8.21935 5.12916 8.81906 4.95777 9.92355 4.91052C10.9686 4.86654 11.3736 4.85336 13.4848 4.85114V4.85378ZM20.548 6.60498C19.7975 6.60498 19.1886 7.17135 19.1886 7.87018C19.1886 8.56891 19.7975 9.13581 20.548 9.13581C21.2985 9.13581 21.9073 8.56891 21.9073 7.87018C21.9073 7.17145 21.2985 6.60456 20.548 6.60456V6.60498ZM14.501 8.08376C11.2884 8.08376 8.68357 10.5089 8.68357 13.5001C8.68357 16.4913 11.2884 18.9153 14.501 18.9153C17.7138 18.9153 20.3177 16.4913 20.3177 13.5001C20.3177 10.509 17.7136 8.08376 14.5008 8.08376H14.501ZM14.501 9.98441C16.5864 9.98441 18.2771 11.5583 18.2771 13.5001C18.2771 15.4417 16.5864 17.0158 14.501 17.0158C12.4155 17.0158 10.725 15.4417 10.725 13.5001C10.725 11.5583 12.4155 9.98441 14.501 9.98441Z" fill="white"/>
</g>
<defs>
<radialGradient id="paint0_radial_162_7732" cx="0" cy="0" r="1" gradientUnits="userSpaceOnUse" gradientTransform="translate(7.70312 29.0795) rotate(-90) scale(26.759 26.7315)">
<stop stop-color="#FFDD55"/>
<stop offset="0.1" stop-color="#FFDD55"/>
<stop offset="0.5" stop-color="#FF543E"/>
<stop offset="1" stop-color="#C837AB"/>
</radialGradient>
<radialGradient id="paint1_radial_162_7732" cx="0" cy="0" r="1" gradientUnits="userSpaceOnUse" gradientTransform="translate(-4.85761 1.94495) rotate(77.8666) scale(11.9968 52.8016)">
<stop stop-color="#3771C8"/>
<stop offset="0.128" stop-color="#3771C8"/>
<stop offset="1" stop-color="#6600FF" stop-opacity="0"/>
</radialGradient>
<clipPath id="clip0_162_7732">
<rect width="29" height="27" fill="white"/>
</clipPath>
</defs>
</svg>
