<svg width="23" height="24" viewBox="0 0 23 24" fill="none" xmlns="http://www.w3.org/2000/svg">
<path d="M17.8009 4.4466L17.8009 4.44662C18.4566 5.14072 19.2464 5.4775 19.8965 5.63934C20.2199 5.71982 20.499 5.75445 20.6928 5.76893C20.7893 5.77613 20.8632 5.77825 20.9092 5.77872C20.9321 5.77896 20.948 5.77878 20.9561 5.77864L20.9608 5.77855L20.9611 5.77852L20.9622 5.7785L22 5.73292V6.77778V10.2111V11.2095L21.0016 11.2111C19.5417 11.2134 18.1039 10.9173 16.7895 10.3491V15.6667C16.7895 19.7977 13.1697 23 8.89477 23C4.92089 23 1 20.0395 1 15.6667C1 11.1728 5.28152 7.83524 9.96128 8.40739L10.8399 8.51482V9.4V12.9111V14.2349L9.56655 13.873C8.03604 13.438 6.75638 14.5168 6.75638 15.6667C6.75638 16.6298 7.64987 17.5555 8.90676 17.5556L17.8009 4.4466ZM17.8009 4.4466L17.7971 4.44258M17.8009 4.4466L17.7971 4.44258M17.7971 4.44258C17.1386 3.75331 16.7893 2.88433 16.7895 2.0003L16.7898 1M17.7971 4.44258L16.7898 1M16.7898 1H15.7895M16.7898 1H15.7895M15.7895 1H12.0453H11.0453M15.7895 1H11.0453M11.0453 1V2M11.0453 1V2M11.0453 2V15.7561M11.0453 2V15.7561M11.0453 15.7561C11.023 16.2089 10.8121 16.6563 10.4249 16.9989C10.0304 17.3481 9.48722 17.5555 8.90689 17.5556L11.0453 15.7561Z" fill="black" stroke="white" stroke-width="2"/>
</svg>
