<svg width="35" height="35" viewBox="0 0 35 35" fill="none" xmlns="http://www.w3.org/2000/svg">
<path d="M33.3594 11.4297C29.9688 8.36719 26.5781 5.25 23.1875 2.1875C18.2109 9.73438 9.78906 16.4609 1.80469 21.3281C1.58594 22.3672 1.36719 23.3516 1.09375 24.3359C4.59375 27.5078 8.09375 30.7344 11.5938 33.9062C19.8516 29.3672 28.6016 22.9141 33.9062 15.5859C33.7422 14.2188 33.5234 12.8516 33.3594 11.4297Z" fill="#699635"/>
<path d="M12.25 29.8594C8.80469 26.6875 5.35938 23.5156 1.91406 20.3984C10.5 15.5312 17.7187 8.91406 23.0234 1.09375C26.4688 4.26562 29.9141 7.38281 33.3594 10.5547C28.0547 18.375 20.8359 24.9922 12.25 29.8594Z" fill="#83BF4F"/>
<path d="M11.375 27.7812C9.07812 25.7031 6.78125 23.5703 4.48438 21.4922C4.64844 21.3828 4.75781 21.3281 4.92188 21.2187C5.35938 20.9453 5.46875 20.4531 5.08594 20.0703L4.75781 19.7422C11.7031 15.4766 17.7187 10.0078 22.4219 3.66406L22.75 3.99219C23.1328 4.32031 23.6797 4.26562 24.0078 3.88281C24.1172 3.77344 24.1719 3.60938 24.2812 3.5C26.5781 5.57812 28.875 7.71094 31.1719 9.78906C31.0625 9.89844 31.0078 10.0625 30.8984 10.1719C30.5703 10.6094 30.625 11.2109 31.0078 11.5938L31.3359 11.9219C26.6328 18.2109 20.6172 23.6797 13.6719 27.9453L13.3438 27.6172C12.9609 27.2891 12.3047 27.2344 11.8125 27.5078C11.6484 27.6172 11.5391 27.6719 11.375 27.7812ZM5.96094 21.5469C7.82031 23.2422 9.67969 24.9375 11.5938 26.6875C12.3047 26.4687 13.125 26.5234 13.7812 26.8516C20.125 22.8047 25.6484 17.7734 30.0781 11.9219C29.6953 11.3203 29.6406 10.5547 29.9141 9.89844C28.0547 8.20313 26.1953 6.50781 24.2812 4.75781C23.7891 5.19531 23.0781 5.25 22.4766 4.92188C18.0469 10.8281 12.5234 15.8594 6.17969 19.9063C6.50781 20.4531 6.45312 21.1094 5.96094 21.5469Z" fill="#699635"/>
<path d="M10.9375 20.3984C11.5391 20.1797 12.1953 20.2344 12.6328 20.6172C12.3594 20.8359 12.0313 21.0547 11.7578 21.2734C11.6484 21.1641 11.375 21.1641 11.2656 21.2734C11.1016 21.3828 11.0469 21.5469 11.2109 21.6562C11.3203 21.7656 11.5938 21.7656 11.7578 21.6562C12.4141 21.2187 13.3438 21.1641 13.8359 21.6562C14.2188 22.0391 14.2734 22.5859 13.8906 23.0234C14 23.1328 14.1094 23.1875 14.2188 23.2969C13.9453 23.4609 13.6719 23.6797 13.3984 23.8437C13.2891 23.7344 13.1797 23.625 13.0703 23.5703C12.4688 23.7344 11.8125 23.6797 11.4297 23.2969C11.7578 23.0781 12.0313 22.9141 12.3594 22.6953C12.4688 22.8047 12.7422 22.8047 12.9063 22.6953C13.0703 22.5859 13.0703 22.4219 12.9609 22.3125C12.8516 22.2031 12.6328 22.2031 12.4688 22.3125C12.0859 22.5859 11.5938 22.6953 11.1563 22.6406C10.8281 22.5859 10.5547 22.4766 10.3359 22.3125C9.95313 21.9297 9.95312 21.4375 10.2812 21C10.1719 20.9453 10.1172 20.8359 10.0078 20.7266C10.2812 20.5625 10.5547 20.3438 10.8281 20.1797C10.7734 20.2344 10.8828 20.2891 10.9375 20.3984ZM23.625 8.69531C24.1172 8.36719 24.7188 8.36719 25.1016 8.75L24.4453 9.57031C24.3359 9.46094 24.1172 9.46094 24.0078 9.625C23.8984 9.78906 23.8984 10.0078 24.0078 10.1172C24.1172 10.2266 24.3359 10.2266 24.4453 10.0625C24.9375 9.46094 25.7578 9.35156 26.25 9.78906C26.6328 10.1719 26.7422 10.7734 26.5234 11.3203C26.6328 11.4297 26.7422 11.4844 26.8516 11.5938C26.6328 11.8672 26.4688 12.0859 26.25 12.3594C26.1406 12.25 26.0313 12.1406 25.9219 12.0859C25.4297 12.3594 24.8828 12.3594 24.5 11.9766C24.7188 11.7031 24.9922 11.4297 25.2109 11.1562C25.3203 11.2656 25.5391 11.2656 25.6484 11.1016C25.7578 10.9375 25.7578 10.7188 25.6484 10.6094C25.5391 10.5 25.3203 10.5 25.2109 10.6641C24.9375 10.9922 24.5 11.2109 24.1172 11.2109C23.8438 11.2109 23.5703 11.1016 23.3516 10.9375C22.9688 10.5547 22.8594 10.0078 23.0781 9.46094C22.9688 9.40625 22.9141 9.29687 22.8047 9.1875C23.0234 8.96875 23.2422 8.69531 23.4062 8.42188C23.4062 8.53125 23.5156 8.58594 23.625 8.69531ZM21.9844 19.4141C20.2344 21 17.2813 20.9453 15.5859 19.4141C13.8906 17.8281 14 15.3672 15.75 13.7813C17.5 12.1953 20.2344 12.0312 21.9297 13.6172C23.6797 15.1484 23.7344 17.8281 21.9844 19.4141Z" fill="#699635"/>
<path d="M11.9219 13.3984L22.2578 22.8594C23.4609 21.875 24.5547 20.8359 25.6484 19.7422L15.3672 10.2812C14.2734 11.3203 13.125 12.3594 11.9219 13.3984Z" fill="#FFDD7D"/>
<path d="M22.3125 27.0156C23.4609 26.1406 24.6094 25.2109 25.7031 24.2813V19.6875C24.6094 20.7812 23.4609 21.8203 22.3125 22.8047V27.0156Z" fill="#DBB471"/>
<path d="M6.61719 13.5074C7.21875 13.2886 7.71094 12.9605 8.20312 12.5777C8.69531 12.1949 9.13281 11.8121 9.625 11.3746C10.1172 10.9918 10.6094 10.5543 11.1562 10.2808C11.7031 9.95269 12.4141 9.78863 13.0156 9.898C12.4141 10.0074 11.8672 10.2808 11.375 10.6636C10.8828 10.9918 10.4453 11.4293 9.95313 11.8121C9.46094 12.1949 8.96875 12.6324 8.42187 12.9605C7.875 13.2886 7.21875 13.5074 6.61719 13.5074Z" fill="#8D9998"/>
<path d="M21.7659 18.1012C21.7659 18.1012 24.4456 18.8668 30.6799 17.2262C36.9143 15.5855 33.9612 33.523 22.5862 33.523C21.3284 33.523 21.2737 31.9371 24.7737 29.0934C24.7737 29.0934 19.8518 30.2418 21.9846 26.5777C21.9846 26.5777 18.4846 27.1793 20.0706 24.3902C20.0706 24.3902 20.7815 22.3121 20.1253 19.9605C20.1799 19.9605 20.5628 18.7574 21.7659 18.1012Z" fill="#E8E8E8"/>
<path d="M33.6327 18.9766C33.7421 23.7891 29.9139 31.7734 22.3124 31.7734H22.203C21.492 32.9219 21.8202 33.5781 22.5858 33.5781C31.2264 33.5234 34.9999 23.2422 33.6327 18.9766Z" fill="#D1D1D1"/>
<path d="M29.6955 21.6016C28.0548 27.5078 21.4923 28 21.4923 28C21.2189 29.2578 21.7658 29.8047 22.4767 29.8047C24.883 29.8594 29.3673 25.8672 29.6955 21.6016ZM25.1017 21.6016C21.2189 27.0703 19.8517 25.0469 19.8517 25.0469C18.8673 27.2344 21.4377 27.2344 21.8752 26.7422C23.133 25.375 25.1564 22.5312 25.1017 21.6016Z" fill="#D1D1D1"/>
<path d="M22.1484 31.9375C22.8047 31.0625 23.625 30.3516 24.4453 29.6406C25.2656 28.9297 26.0859 28.2188 26.9063 27.4531C27.6719 26.6875 28.4375 25.8125 28.9844 24.8281C29.5312 23.8438 29.8047 22.6953 29.6953 21.6016C29.5859 22.6953 29.2031 23.7344 28.6016 24.6094C28 25.4844 27.2891 26.3047 26.5234 27.0703C25.7578 27.8359 24.9375 28.5469 24.1719 29.3672C23.3516 30.0781 22.6406 30.9531 22.1484 31.9375ZM21.4922 28C21.7109 27.3984 22.0391 26.9062 22.4219 26.4141C22.8047 25.9219 23.1875 25.4844 23.625 24.9922C24.0078 24.5 24.4453 24.0078 24.7188 23.4609C25.0469 22.9141 25.2109 22.2031 25.1016 21.6016C24.9922 22.2031 24.7188 22.75 24.3359 23.2422C24.0078 23.7344 23.5703 24.1719 23.1875 24.6641C22.8047 25.1562 22.3672 25.6484 22.0391 26.1953C21.7109 26.7422 21.4922 27.3984 21.4922 28Z" fill="#8D9998"/>
<path d="M16.5156 13.2347C16.5156 13.2347 15.75 10.555 17.3906 4.32059C19.0312 -1.91378 1.09375 1.03935 1.09375 12.4143C1.09375 13.6722 2.67969 13.7268 5.52344 10.2268C5.52344 10.2268 4.375 15.1487 8.03906 13.0159C8.03906 13.0159 7.4375 16.5159 10.2266 14.93C10.2266 14.93 12.3047 14.219 14.6562 14.8753C14.6562 14.8206 15.8594 14.4378 16.5156 13.2347Z" fill="#E8E8E8"/>
<path d="M15.6406 1.36711C10.8281 1.25773 2.84375 5.08586 2.84375 12.6874V12.7968C1.69531 13.453 1.09375 13.1796 1.09375 12.414C1.09375 3.77336 11.375 -8.08239e-05 15.6406 1.36711Z" fill="#D1D1D1"/>
<path d="M13.0152 5.30469C7.10895 6.94531 6.61677 13.5078 6.61677 13.5078C5.35895 13.7813 4.81208 13.2344 4.81208 12.5234C4.75739 10.1172 8.74958 5.63281 13.0152 5.30469ZM13.0152 9.89844C7.54645 13.7812 9.56989 15.1484 9.56989 15.1484C7.38239 16.1328 7.38239 13.5625 7.87458 13.125C9.24177 11.8672 12.0855 9.84375 13.0152 9.89844Z" fill="#D1D1D1"/>
<path d="M2.67969 12.8519C3.55469 12.1956 4.26563 11.3753 4.97656 10.555C5.6875 9.7347 6.39844 8.91439 7.16406 8.09408C7.92969 7.32845 8.80469 6.56283 9.78906 6.01595C10.7734 5.46908 11.9219 5.19564 13.0156 5.30502C11.9219 5.41439 10.8828 5.7972 10.0078 6.39877C9.13281 7.00033 8.3125 7.71127 7.54688 8.47689C6.78125 9.24252 6.07031 10.0628 5.25 10.8285C4.48438 11.6488 3.66406 12.3597 2.67969 12.8519Z" fill="#8D9998"/>
<path d="M6.61719 13.5074C7.21875 13.2886 7.71094 12.9605 8.20312 12.5777C8.69531 12.1949 9.13281 11.8121 9.625 11.3746C10.1172 10.9918 10.6094 10.5543 11.1562 10.2808C11.7031 9.95269 12.4141 9.78863 13.0156 9.898C12.4141 10.0074 11.8672 10.2808 11.375 10.6636C10.8828 10.9918 10.4453 11.4293 9.95313 11.8121C9.46094 12.1949 8.96875 12.6324 8.42187 12.9605C7.875 13.2886 7.21875 13.5074 6.61719 13.5074Z" fill="#8D9998"/>
</svg>
