<svg width="30" height="30" viewBox="0 0 30 30" fill="none" xmlns="http://www.w3.org/2000/svg">
<path d="M20.8177 25.1562L25.8854 20.125L24.3542 18.5938L20.8177 22.0573L19.3958 20.6354L17.8646 22.2031L20.8177 25.1562ZM4.375 8.75H21.875V5.83333H4.375V8.75ZM21.875 29.1667C19.8576 29.1667 18.1378 28.4555 16.7154 27.0331C15.2931 25.6108 14.5824 23.8914 14.5833 21.875C14.5833 19.8576 15.2945 18.1378 16.7169 16.7154C18.1392 15.2931 19.8586 14.5824 21.875 14.5833C23.8924 14.5833 25.6122 15.2945 27.0346 16.7169C28.4569 18.1392 29.1676 19.8586 29.1667 21.875C29.1667 23.8924 28.4555 25.6122 27.0331 27.0346C25.6108 28.4569 23.8914 29.1676 21.875 29.1667ZM0 27.7083V0H26.25V12.651C25.5694 12.3108 24.8583 12.0614 24.1165 11.9029C23.3747 11.7444 22.6275 11.6657 21.875 11.6667H4.375V14.5833H14.7292C14.316 14.9965 13.9334 15.4462 13.5815 15.9323C13.2295 16.4184 12.9194 16.941 12.651 17.5H4.375V20.4167H11.776C11.7274 20.6597 11.6968 20.8969 11.6842 21.1283C11.6715 21.3597 11.6657 21.6086 11.6667 21.875C11.6667 22.8958 11.8067 23.8744 12.0867 24.8106C12.3667 25.7469 12.7857 26.6399 13.3438 27.4896L13.125 27.7083L10.9375 25.5208L8.75 27.7083L6.5625 25.5208L4.375 27.7083L2.1875 25.5208L0 27.7083Z" fill="white"/>
</svg>
