<svg width="29" height="27" viewBox="0 0 29 27" fill="none" xmlns="http://www.w3.org/2000/svg">
<path d="M1.11253 12.8829C1.11187 15.1532 1.73068 17.37 2.90734 19.324L1 26L8.12679 24.2086C10.098 25.2373 12.3065 25.7764 14.5509 25.7765H14.5568C21.9657 25.7765 27.9968 19.9969 28 12.893C28.0014 9.45068 26.6043 6.21373 24.0659 3.77843C21.528 1.34333 18.1526 0.00157103 14.5562 0C7.14635 0 1.1157 5.77929 1.11264 12.8829" fill="url(#paint0_linear_211_7674)"/>
<path d="M0.121211 13.3785C0.120418 15.7364 0.785039 18.0383 2.04858 20.0673L0 27L7.65453 25.1397C9.7636 26.2056 12.1382 26.7675 14.5545 26.7684H14.5607C22.5185 26.7684 28.9966 20.7658 29 13.3892C29.0014 9.81419 27.5006 6.45246 24.7746 3.92358C22.0483 1.39501 18.4233 0.00146998 14.5607 0C6.60158 0 0.124383 6.0017 0.121211 13.3785ZM4.67965 19.7178L4.39384 19.2973C3.19238 17.5266 2.55823 15.4804 2.55914 13.3793C2.56174 7.24793 7.94532 2.25956 14.5653 2.25956C17.7711 2.26082 20.7839 3.41916 23.05 5.52081C25.316 7.62267 26.5629 10.4167 26.5621 13.3883C26.5591 19.5197 21.1754 24.5087 14.5607 24.5087H14.556C12.4021 24.5077 10.2898 23.9715 8.44761 22.9584L8.00921 22.7174L3.46686 23.8213L4.67965 19.7177V19.7178Z" fill="url(#paint1_linear_211_7674)"/>
<path d="M10.8135 7.60392C10.5371 7.02968 10.2461 7.01809 9.98316 7.00802C9.76786 6.99936 9.52173 7.00001 9.27584 7.00001C9.02972 7.00001 8.62982 7.08653 8.29181 7.43142C7.95344 7.77663 7 8.61086 7 10.3076C7 12.0044 8.32251 13.6442 8.50688 13.8745C8.69147 14.1044 11.06 17.6977 14.8112 19.0801C17.9288 20.2289 18.5632 20.0004 19.2398 19.9428C19.9166 19.8854 21.4234 19.1088 21.7309 18.3034C22.0385 17.4982 22.0385 16.808 21.9463 16.6638C21.854 16.5201 21.6079 16.4338 21.2388 16.2614C20.8697 16.0889 19.0552 15.2546 18.717 15.1395C18.3786 15.0245 18.1326 14.9671 17.8865 15.3124C17.6404 15.6572 16.9336 16.4338 16.7182 16.6638C16.503 16.8943 16.2876 16.923 15.9187 16.7505C15.5494 16.5775 14.3608 16.2138 12.9507 15.039C11.8535 14.1248 11.1129 12.996 10.8976 12.6506C10.6823 12.3059 10.8745 12.119 11.0595 11.9471C11.2254 11.7926 11.4287 11.5444 11.6134 11.3431C11.7975 11.1417 11.8589 10.998 11.9819 10.768C12.1051 10.5378 12.0435 10.3364 11.9513 10.1639C11.8589 9.99138 11.1417 8.28579 10.8135 7.60392Z" fill="white"/>
<defs>
<linearGradient id="paint0_linear_211_7674" x1="1351" y1="2600" x2="1351" y2="0" gradientUnits="userSpaceOnUse">
<stop stop-color="#1FAF38"/>
<stop offset="1" stop-color="#60D669"/>
</linearGradient>
<linearGradient id="paint1_linear_211_7674" x1="1450" y1="2700" x2="1450" y2="0" gradientUnits="userSpaceOnUse">
<stop stop-color="#F9F9F9"/>
<stop offset="1" stop-color="white"/>
</linearGradient>
</defs>
</svg>
