<svg width="23" height="26" viewBox="0 0 23 26" fill="none" xmlns="http://www.w3.org/2000/svg">
<path d="M11.0803 14.2C13.1679 14.2 14.8603 12.5882 14.8603 10.6C14.8603 8.61177 13.1679 7 11.0803 7C8.99266 7 7.30029 8.61177 7.30029 10.6C7.30029 12.5882 8.99266 14.2 11.0803 14.2Z" stroke="white" stroke-width="2" stroke-linecap="round" stroke-linejoin="round"/>
<path d="M11.08 1C8.40662 1 5.84273 2.01143 3.95236 3.81178C2.062 5.61212 1 8.05392 1 10.6C1 12.8704 1.50652 14.356 2.89 16L11.08 25L19.27 16C20.6535 14.356 21.16 12.8704 21.16 10.6C21.16 8.05392 20.098 5.61212 18.2076 3.81178C16.3173 2.01143 13.7534 1 11.08 1Z" stroke="white" stroke-width="2" stroke-linecap="round" stroke-linejoin="round"/>
</svg>
