<!DOCTYPE svg PUBLIC "-//W3C//DTD SVG 1.1//EN" "http://www.w3.org/Graphics/SVG/1.1/DTD/svg11.dtd">
<!-- Uploaded to: SVG Repo, www.svgrepo.com, Transformed by: SVG Repo Mixer Tools -->
<svg fill="#ffffff" version="1.1" id="Capa_1" xmlns="http://www.w3.org/2000/svg" xmlns:xlink="http://www.w3.org/1999/xlink" width="800px" height="800px" viewBox="0 0 495.018 495.018" xml:space="preserve" stroke="#ffffff">
<g id="SVGRepo_bgCarrier" stroke-width="0"/>
<g id="SVGRepo_tracerCarrier" stroke-linecap="round" stroke-linejoin="round"/>
<g id="SVGRepo_iconCarrier"> <g> <path d="M329.413,390.954c0,25.642-20.87,46.507-46.51,46.507c-25.644,0-46.505-20.865-46.505-46.507 c0-25.647,20.861-46.512,46.505-46.512C308.543,344.442,329.413,365.307,329.413,390.954z M481.01,57.557h-33.805 c-5.57,0-10.621,3.305-12.849,8.421L325.957,315.309H14.007C6.268,315.309,0,321.58,0,329.319c0,7.736,6.268,14.007,14.007,14.007 h321.129c5.576,0,10.627-3.305,12.85-8.422L456.385,85.573h24.625c7.737,0,14.008-6.271,14.008-14.008 C495.018,63.825,488.747,57.557,481.01,57.557z M114.473,344.442c-25.638,0-46.5,20.864-46.5,46.512 c0,25.642,20.862,46.507,46.5,46.507c25.643,0,46.515-20.865,46.515-46.507C160.988,365.307,140.116,344.442,114.473,344.442z M294.162,297.187H67.973V71.004h226.189V297.187z M122.044,98.421l59.02,59.018l59.019-59.018H122.044z M95.395,243.111 l59.021-59.015l-59.021-59.021V243.111z M240.088,269.771L181.07,210.75l-59.025,59.021H240.088z M266.748,125.075l-59.029,59.021 l59.02,59.015V125.075H266.748z M266.748,102.566l-4.146-4.145H249.79l-68.72,68.714l-68.72-68.714H99.541l-4.146,4.145v12.821 l68.716,68.714l-68.716,68.706v12.821l4.14,4.147h12.815l68.72-68.72l68.72,68.714h12.812l4.146-4.146v-12.821l-68.718-68.707 l68.718-68.714V102.566z M105.677,104.132c-2.839,0-5.144,2.303-5.144,5.138c0,2.839,2.305,5.137,5.144,5.137 c2.834,0,5.138-2.298,5.138-5.137C110.811,106.43,108.506,104.132,105.677,104.132z M255.322,104.132 c-2.844,0-5.142,2.303-5.142,5.138c0,2.839,2.298,5.137,5.142,5.137c2.835,0,5.146-2.298,5.146-5.137 C260.468,106.43,258.157,104.132,255.322,104.132z M105.677,252.064c-2.839,0-5.144,2.303-5.144,5.138 c0,2.834,2.305,5.139,5.144,5.139c2.834,0,5.138-2.305,5.138-5.139C110.811,254.367,108.506,252.064,105.677,252.064z M255.322,262.346c2.835,0,5.146-2.303,5.146-5.138c0-2.841-2.311-5.139-5.146-5.139c-2.844,0-5.142,2.303-5.142,5.139 C250.181,260.043,252.479,262.346,255.322,262.346z"/> </g> </g>
</svg>