<svg width="20" height="6" viewBox="0 0 20 6" fill="none" xmlns="http://www.w3.org/2000/svg">
<path d="M12.5926 2.59259C12.5926 3.10536 12.4405 3.60661 12.1557 4.03296C11.8708 4.45931 11.4659 4.79161 10.9921 4.98784C10.5184 5.18406 9.99712 5.2354 9.49421 5.13537C8.9913 5.03533 8.52934 4.78841 8.16676 4.42583C7.80418 4.06325 7.55726 3.6013 7.45722 3.09838C7.35719 2.59547 7.40853 2.07418 7.60476 1.60045C7.80098 1.12672 8.13328 0.721808 8.55963 0.43693C8.98598 0.152053 9.48724 0 10 0C10.6868 0.00243998 11.3449 0.276371 11.8305 0.762049C12.3162 1.24773 12.5902 1.90575 12.5926 2.59259ZM2.59259 0C2.07983 0 1.57858 0.152053 1.15223 0.43693C0.725877 0.721808 0.393578 1.12672 0.197351 1.60045C0.00112333 2.07418 -0.0502186 2.59547 0.0498171 3.09838C0.149853 3.6013 0.396773 4.06325 0.759354 4.42583C1.12193 4.78841 1.58389 5.03533 2.0868 5.13537C2.58972 5.2354 3.111 5.18406 3.58474 4.98784C4.05847 4.79161 4.46338 4.45931 4.74826 4.03296C5.03313 3.60661 5.18519 3.10536 5.18519 2.59259C5.18275 1.90575 4.90881 1.24773 4.42314 0.762049C3.93746 0.276371 3.27944 0.00243998 2.59259 0ZM17.4074 0C16.8946 0 16.3934 0.152053 15.967 0.43693C15.5407 0.721808 15.2084 1.12672 15.0122 1.60045C14.8159 2.07418 14.7646 2.59547 14.8646 3.09838C14.9647 3.6013 15.2116 4.06325 15.5742 4.42583C15.9367 4.78841 16.3987 5.03533 16.9016 5.13537C17.4045 5.2354 17.9258 5.18406 18.3995 4.98784C18.8733 4.79161 19.2782 4.45931 19.5631 4.03296C19.8479 3.60661 20 3.10536 20 2.59259C19.9976 1.90575 19.7236 1.24773 19.238 0.762049C18.7523 0.276371 18.0943 0.00243998 17.4074 0Z" fill="white"/>
</svg>
